# xmcd
#
# Track frame offsets:
#	150
#	13675
#	26458
#	40618
#	51288
#	68575
#	80868
#	94143
#	109438
#	118608
#	133788
#	148170
#	162600
#	177743
#	190875
#	201170
#
# Disc length: 2896 seconds
#
# Revision: 1
# Processed by: cddbd v1.4PL0 Copyright (c) Steve Scherf et al.
# Submitted via: audiograbber 1.81.02
#
DISCID=ef0b4e10
DTITLE=Godewind - Mien Leevste Musik
DYEAR=1900
DGENRE=
TTITLE0=Mien Leevste Musik
TTITLE1=Wat mutt - dat mutt
TTITLE2=Pharisäer
TTITLE3=In Angeln is hüt Brarupmarkt
TTITLE4=Kiek doch bi dien Nawer mal vörbi
TTITLE5=Arfensupp is Arfensupp
TTITLE6=Made in Freesland
TTITLE7=mien flachet Land
TTITLE8=Fährmann
TTITLE9=Dat du mien Leevsten büst
TTITLE10=Sommerregen
TTITLE11=Probeern geiht över studeern
TTITLE12=Biikenbrennen
TTITLE13=Wulken an Heben
TTITLE14=Danz op de Deel
TTITLE15=Abend an 'ne Dieck
EXTD=
EXTT0=
EXTT1=
EXTT2=
EXTT3=
EXTT4=
EXTT5=
EXTT6=
EXTT7=
EXTT8=
EXTT9=
EXTT10=
EXTT11=
EXTT12=
EXTT13=
EXTT14=
EXTT15=
PLAYORDER=
